<svg id="SvgjsSvg1001" width="288" height="288" xmlns="http://www.w3.org/2000/svg" version="1.1" xmlns:xlink="http://www.w3.org/1999/xlink" xmlns:svgjs="http://svgjs.com/svgjs"><defs id="SvgjsDefs1002"></defs><g id="SvgjsG1008" transform="matrix(1,0,0,1,0,0)"><svg xmlns="http://www.w3.org/2000/svg" width="288" height="288" viewBox="0 0 24 24"><path d="M10 16c0-1.104.896-2 2-2s2 .896 2 2c0 .738-.404 1.376-1 1.723v2.277h-2v-2.277c-.596-.347-1-.985-1-1.723zm11-6v14h-18v-14h3v-4c0-3.313 2.687-6 6-6s6 2.687 6 6v4h3zm-13 0h8v-4c0-2.206-1.795-4-4-4s-4 1.794-4 4v4zm11 2h-14v10h14v-10z" fill="#87959c" class="color000 svgShape"></path></svg></g></svg>